<?xml version="1.0" encoding="UTF-8"?>
<svg version="1.1" xmlns="http://www.w3.org/2000/svg" width="140" height="76">
<path d="M0 0 C46.2 0 92.4 0 140 0 C140 25.08 140 50.16 140 76 C93.8 76 47.6 76 0 76 C0 50.92 0 25.84 0 0 Z " fill="#F5F6F4" transform="translate(0,0)"/>
<path d="M0 0 C3.84177074 0.30329769 6.09427672 1.52475424 9 4 C6.36 3.67 3.72 3.34 1 3 C1.33 5.64 1.66 8.28 2 11 C2.99 10.01 3.98 9.02 5 8 C8 9 8 9 10 11 C10.33 8.36 10.66 5.72 11 3 C9.68 2.34 8.36 1.68 7 1 C9.375 0.375 9.375 0.375 12 0 C14 2 14 2 14.01171875 3.875 C13.90472656 4.57625 13.79773438 5.2775 13.6875 6 C13.58824219 6.70125 13.48898438 7.4025 13.38671875 8.125 C13 10 13 10 12 12 C12.69867188 11.6390625 13.39734375 11.278125 14.1171875 10.90625 C15.02726562 10.4421875 15.93734375 9.978125 16.875 9.5 C17.77992187 9.0359375 18.68484375 8.571875 19.6171875 8.09375 C22 7 22 7 24 7 C22.26165451 12.5310993 19.08079437 15.56326103 14.375 18.8125 C8.38463726 20.92022022 2.48025043 21.16992945 -3.3125 18.4375 C-6.50470031 15.54224856 -9.53395239 12.55040897 -12 9 C-12 8.34 -12 7.68 -12 7 C-7.96479403 8.58962659 -3.98188718 10.28232318 0 12 C-0.495 10.9171875 -0.495 10.9171875 -1 9.8125 C-2.02083172 6.94141078 -2.32596895 5.01521279 -2 2 C-1.34 1.34 -0.68 0.68 0 0 Z " fill="#5EBCB4" transform="translate(64,17)"/>
<path d="M0 0 C2.5 0.25 2.5 0.25 4.5 2.25 C4.83 1.59 5.16 0.93 5.5 0.25 C6.16 0.25 6.82 0.25 7.5 0.25 C7.5 3.88 7.5 7.51 7.5 11.25 C6.84 11.25 6.18 11.25 5.5 11.25 C5.17 10.59 4.84 9.93 4.5 9.25 C3.84 9.91 3.18 10.57 2.5 11.25 C0.0625 11.625 0.0625 11.625 -2.5 11.25 C-4.375 9.5625 -4.375 9.5625 -5.5 7.25 C-5.20650822 3.14111503 -4.496108 0.4496108 0 0 Z " fill="#B8C5C8" transform="translate(76.5,40.75)"/>
<path d="M0 0 C0.66 0 1.32 0 2 0 C2.33 1.65 2.66 3.3 3 5 C4.32 4.01 5.64 3.02 7 2 C7 2.66 7 3.32 7 4 C9.31 3.34 11.62 2.68 14 2 C8.55164835 7.74285714 8.55164835 7.74285714 3.984375 8.203125 C-1.49031074 8.31797855 -5.19460179 7.691023 -10 5 C-11.9375 2.8125 -11.9375 2.8125 -13 1 C-11.9790625 1.433125 -11.9790625 1.433125 -10.9375 1.875 C-7.67106907 3.12597355 -4.37153877 4.07447955 -1 5 C-0.67 3.35 -0.34 1.7 0 0 Z " fill="#EDF5F1" transform="translate(69,27)"/>
<path d="M0 0 C-1.73834549 5.5310993 -4.91920563 8.56326103 -9.625 11.8125 C-14.35861475 13.47803112 -19.02433009 13.62602383 -24 13 C-24.66 12.34 -25.32 11.68 -26 11 C-23.07670683 10.13554988 -20.71737087 9.98837882 -17.6875 10.1875 C-12.72713284 10.27783781 -10.05422319 8.76032217 -6 6 C-7.98 6.33 -9.96 6.66 -12 7 C-12 6.34 -12 5.68 -12 5 C-10.37750059 4.16180842 -8.75191503 3.3295884 -7.125 2.5 C-6.22007813 2.0359375 -5.31515625 1.571875 -4.3828125 1.09375 C-2 0 -2 0 0 0 Z " fill="#97CCA2" transform="translate(88,24)"/>
<path d="M0 0 C1.79133978 -0.05391993 3.58313899 -0.09275571 5.375 -0.125 C6.37273438 -0.14820313 7.37046875 -0.17140625 8.3984375 -0.1953125 C11 0 11 0 13 2 C13.125 5.125 13.125 5.125 13 8 C12.01 8 11.02 8 10 8 C10 6.02 10 4.04 10 2 C9.01 2.495 9.01 2.495 8 3 C7.34444881 5.52733235 7.34444881 5.52733235 7 8 C6.34 8 5.68 8 5 8 C5 6.02 5 4.04 5 2 C4.01 2 3.02 2 2 2 C2 3.98 2 5.96 2 8 C1.34 8 0.68 8 0 8 C0 5.36 0 2.72 0 0 Z " fill="#43ADA9" transform="translate(41,44)"/>
<path d="M0 0 C0.99 0.33 1.98 0.66 3 1 C5.00875442 0.72428861 7.01178687 0.39764263 9 0 C9.33 0.99 9.66 1.98 10 3 C8.35 2.67 6.7 2.34 5 2 C5 3.32 5 4.64 5 6 C6.65 5.67 8.3 5.34 10 5 C9.67 5.99 9.34 6.98 9 8 C6.03 8 3.06 8 0 8 C0 5.36 0 2.72 0 0 Z " fill="#90A3AB" transform="translate(98,44)"/>
<path d="M0 0 C4.70588235 0.70588235 4.70588235 0.70588235 6 2 C5.65943286 7.10850717 5.24325068 10.84863913 2 15 C1.34 15 0.68 15 0 15 C-0.33 13.35 -0.66 11.7 -1 10 C-1.66 10 -2.32 10 -3 10 C-3 10.99 -3 11.98 -3 13 C-3.99 12.67 -4.98 12.34 -6 12 C-5.01 10.68 -4.02 9.36 -3 8 C0 9 0 9 2 11 C2.33 8.36 2.66 5.72 3 3 C1.68 2.34 0.36 1.68 -1 1 C-0.67 0.67 -0.34 0.34 0 0 Z " fill="#86C6AC" transform="translate(72,17)"/>
<path d="M0 0 C1.65 0.33 3.3 0.66 5 1 C5 1.66 5 2.32 5 3 C3.68 2.67 2.36 2.34 1 2 C2.25541557 4.51083114 3.50063488 4.87125446 6 6 C5.67 7.32 5.34 8.64 5 10 C3.35 10.33 1.7 10.66 0 11 C-0.66 9.68 -1.32 8.36 -2 7 C0.475 7.99 0.475 7.99 3 9 C1.35 7.35 -0.3 5.7 -2 4 C-1.34 2.68 -0.68 1.36 0 0 Z " fill="#4EB1AD" transform="translate(34,41)"/>
<path d="M0 0 C2.00720923 0.28674418 4.0085944 0.61866701 6 1 C6 1.99 6 2.98 6 4 C4.35 4 2.7 4 1 4 C1 4.66 1 5.32 1 6 C2.65 5.67 4.3 5.34 6 5 C6 5.66 6 6.32 6 7 C4.0085944 7.38133299 2.00720923 7.71325582 0 8 C-1 7 -1 7 -1.125 4 C-1 1 -1 1 0 0 Z " fill="#48AEAB" transform="translate(64,44)"/>
<path d="M0 0 C3.37503669 1.1858237 5.64722731 2.27573689 8 5 C7.01 5 6.02 5 5 5 C6.98 6.65 8.96 8.3 11 10 C10.01 10.33 9.02 10.66 8 11 C6.84501103 9.92643323 5.70132133 8.84070212 4.5625 7.75 C3.92441406 7.14671875 3.28632812 6.5434375 2.62890625 5.921875 C0.91483694 3.89951984 0.40641122 2.58729395 0 0 Z " fill="#40B2AF" transform="translate(52,24)"/>
<path d="M0 0 C2.35694954 0.09031574 4.71153582 0.24688128 7.0625 0.4375 C8.35285156 0.53933594 9.64320312 0.64117187 10.97265625 0.74609375 C12.47119141 0.87177734 12.47119141 0.87177734 14 1 C12 3 12 3 9.46875 3.265625 C8.4890625 3.26046875 7.509375 3.2553125 6.5 3.25 C5.5203125 3.25515625 4.540625 3.2603125 3.53125 3.265625 C1 3 1 3 -1 1 C-0.67 0.67 -0.34 0.34 0 0 Z " fill="#70BFA9" transform="translate(63,34)"/>
<path d="M0 0 C2.66666667 0 5.33333333 0 8 0 C8 1.32 8 2.64 8 4 C5.03 4 2.06 4 -1 4 C-0.67 2.68 -0.34 1.36 0 0 Z " fill="#B9C5C8" transform="translate(81,55)"/>
<path d="M0 0 C4.70588235 0.70588235 4.70588235 0.70588235 6 2 C5.82364548 4.69082872 5.38164079 7.32851446 5 10 C4.34 9.67 3.68 9.34 3 9 C3 7.02 3 5.04 3 3 C1.68 2.34 0.36 1.68 -1 1 C-0.67 0.67 -0.34 0.34 0 0 Z " fill="#9CCFAA" transform="translate(72,17)"/>
<path d="M0 0 C3.875 0.875 3.875 0.875 5 2 C5.04080783 3.99958364 5.04254356 6.00045254 5 8 C4.01 8 3.02 8 2 8 C2 6.02 2 4.04 2 2 C1.34 2 0.68 2 0 2 C0 1.34 0 0.68 0 0 Z " fill="#5EB8B4" transform="translate(49,44)"/>
<path d="M0 0 C1.65 0.33 3.3 0.66 5 1 C5 1.66 5 2.32 5 3 C3.68 2.67 2.36 2.34 1 2 C1.33 3.32 1.66 4.64 2 6 C0.68 5.34 -0.64 4.68 -2 4 C-1.34 2.68 -0.68 1.36 0 0 Z " fill="#41ACA8" transform="translate(34,41)"/>
<path d="M0 0 C0.66 0 1.32 0 2 0 C2.66 2.31 3.32 4.62 4 7 C2.68 7.33 1.36 7.66 0 8 C0 5.36 0 2.72 0 0 Z " fill="#B0BDC1" transform="translate(98,44)"/>
<path d="M0 0 C0.99 0.495 0.99 0.495 2 1 C1.67 1.66 1.34 2.32 1 3 C1.66 3 2.32 3 3 3 C3 2.34 3 1.68 3 1 C4.32 0.67 5.64 0.34 7 0 C7 1.32 7 2.64 7 4 C4.69 4 2.38 4 0 4 C0 2.68 0 1.36 0 0 Z " fill="#A6B5BA" transform="translate(51,55)"/>
<path d="M0 0 C0.33 0.66 0.66 1.32 1 2 C3.31 1.34 5.62 0.68 8 0 C6.37660195 1.70884005 4.70680947 3.37446717 3 5 C2.34 5 1.68 5 1 5 C0.67 3.35 0.34 1.7 0 0 Z " fill="#E6F1E8" transform="translate(75,29)"/>
<path d="M0 0 C2.97 0.495 2.97 0.495 6 1 C6 1.99 6 2.98 6 4 C4.35 4 2.7 4 1 4 C0.67 2.68 0.34 1.36 0 0 Z " fill="#61B9B5" transform="translate(64,44)"/>
<path d="M0 0 C1.98 0 3.96 0 6 0 C5.34 1.32 4.68 2.64 4 4 C2.68 3.67 1.36 3.34 0 3 C0 2.01 0 1.02 0 0 Z " fill="#AEBDC1" transform="translate(72,55)"/>
<path d="M0 0 C3.82097239 0.53069061 6.06171403 1.49701566 9 4 C6.03 3.67 3.06 3.34 0 3 C0 2.01 0 1.02 0 0 Z " fill="#6DBFB1" transform="translate(64,17)"/>
</svg>
